# xmcd
# Copyright (C) 1995-1998 Ti Kan
#
# Track frame offsets:
#       150
#       13195
#       23825
#       34817
#       45812
#       61145
#       76462
#       88275
#       102705
#       117042
#       129680
#       143605
#       155550
#       166135
#       181077
#       195625
#
# Disc length: 2782 seconds
#
# Revision: 0
# Processed by: cddbd v1.5.1PL0 Copyright (c) Steve Scherf et al.
# Submitted via: CD-Transfer v1.0
#
DISCID=cb0adc10
DTITLE=Ländler Super-Hitparade 1 - 
DYEAR=96
DGENRE=
TTITLE0=Steiner-Chilbi
TTITLE1=Stimmig idr Obstmülli
TTITLE2=De Seppel
TTITLE3=Frieda's Traum
TTITLE4=Im chline Hüsli
TTITLE5=Berewegge, Chäs ond Brot
TTITLE6=Klarinetten-Muckl
TTITLE7=s'Toggeburg ab
TTITLE8=Im Oergelihuus
TTITLE9=Chatzebüsi-Ländler
TTITLE10=Ferieplausch i de Biberegg
TTITLE11=Männertreu
TTITLE12=Föhnsturm
TTITLE13=Dudelsack
TTITLE14=Poscht isch da
TTITLE15=Rond om de Säntis
EXTD=
EXTT0=
EXTT1=
EXTT2=
EXTT3=
EXTT4=
EXTT5=
EXTT6=
EXTT7=
EXTT8=
EXTT9=
EXTT10=
EXTT11=
EXTT12=
EXTT13=
EXTT14=
EXTT15=
PLAYORDER=
